<?xml version="1.0" encoding="UTF-8"?>
<svg id="Layer_2" data-name="Layer 2" xmlns="http://www.w3.org/2000/svg" viewBox="0 0 238.01 95.1">
  <defs>
    <style>
      .cls-1 {
        fill: #fefdfd;
      }

      .cls-1, .cls-2, .cls-3, .cls-4, .cls-5, .cls-6 {
        stroke-width: 0px;
      }

      .cls-2, .cls-7 {
        fill: #f9d1e0;
      }

      .cls-8 {
        fill: #f5c6a8;
      }

      .cls-8, .cls-9, .cls-7 {
        letter-spacing: .13em;
      }

      .cls-10 {
        fill: #f7c5ac;
      }

      .cls-10, .cls-11 {
        letter-spacing: .13em;
      }

      .cls-3, .cls-9 {
        fill: #fff5cc;
      }

      .cls-4, .cls-12 {
        fill: #b5e0dc;
      }

      .cls-13 {
        fill: #f8e6aa;
      }

      .cls-13, .cls-14, .cls-12, .cls-15 {
        letter-spacing: .13em;
      }

      .cls-14 {
        fill: #231f20;
        stroke: #fff;
        stroke-linecap: round;
        stroke-linejoin: round;
        stroke-width: 7px;
      }

      .cls-14, .cls-16 {
        font-family: Nunito-Bold, Nunito;
        font-size: 37.83px;
        font-variation-settings: 'wght' 700;
        font-weight: 700;
      }

      .cls-11 {
        fill: #c5e2d0;
      }

      .cls-15 {
        fill: #ccc2da;
      }

      .cls-5 {
        fill: #fff;
      }

      .cls-6 {
        fill: #6c5c9f;
      }

      .cls-17 {
        fill: #fac9d2;
        letter-spacing: .13em;
      }
    </style>
  </defs>
  <g id="Layer_1-2" data-name="Layer 1">
    <g>
      <path class="cls-2" d="M88.7,46.52c-.82-1.38-1.87-2.59-2.93-3.78-1.98-2.24-4.02-4.43-6.17-6.5-1.07-1.03-2.12-2.1-3.18-3.15-1.47-1.46-2.94-2.93-4.43-4.38-.6-.59-1.24-1.14-1.85-1.72-.57-.54-1.14-1.09-1.71-1.64-.31-.3-.6-.61-.9-.92-.69-.66-1.37-1.32-2.07-1.97-1.69-1.56-3.38-3.12-5.07-4.67-1.57-1.43-3.14-2.86-4.71-4.29-.04-.03-.06-.07-.09-.11-.29-.24-.58-.48-.87-.72-1.1-.93-2.2-1.86-3.3-2.79-.12-.1-.25-.17-.37-.27-.47-.42-.91-.87-1.41-1.25-.66-.49-1.37-.91-2.06-1.37-.68-.46-1.48-.67-2.26-.79-1.16-.18-2.33-.09-3.44.37-.27.11-.51.31-.79.39-.43.13-.78.37-1.09.66-.86.81-1.7,1.64-2.55,2.47-.74.72-1.48,1.44-2.2,2.18-1.08,1.12-2.15,2.26-3.23,3.38-.84.87-1.7,1.71-2.54,2.59-1.24,1.31-2.46,2.64-3.7,3.95-1.32,1.39-2.67,2.77-3.98,4.16-1.29,1.38-2.56,2.78-3.85,4.17-.75.81-1.53,1.61-2.28,2.43-.84.91-1.66,1.84-2.49,2.75-.85.94-1.72,1.86-2.57,2.8-.67.75-1.3,1.52-1.96,2.27-.44.5-.93.96-1.35,1.48-.93,1.15-1.85,2.32-2.73,3.51-.7.95-1.3,1.97-1.49,3.17-.06.39-.13.8-.08,1.19.05.48.19.96.34,1.43.14.41.52.63.84.9.66.55,1.42.42,2.17.36.14-.01.27-.21.4-.32.14-.12.27-.25.41-.37.8,0,1.59-.02,2.39,0,.93,0,1.87.05,2.8.05.26,0,.34.09.33.34-.03,1.34-.03,2.69-.06,4.03-.03,1.7-.08,3.41-.11,5.11-.03,1.63-.06,3.25-.06,4.88,0,3.17.03,6.33.05,9.5,0,.72.05,1.44.12,2.15.12,1.35.53,2.59,1.35,3.69.83,1.11,1.85,1.93,3.23,2.23.61.13,1.21.29,1.82.36,1.01.11,2.03.17,3.05.24,1.39.09,2.77.16,4.16.24.9.05,1.81.08,2.71.12,1.07.04,2.14.08,3.21.12.98.03,1.97.05,2.95.06,1.96.02,3.92.05,5.88.06.91,0,1.81-.03,2.72-.05,1.04-.02,2.08-.04,3.13-.06,1.68-.04,3.37-.08,5.05-.12.47-.01.93-.04,1.4-.05,1.57-.06,3.15-.12,4.72-.18.94-.04,1.88-.07,2.83-.11,1.16-.05,2.33-.11,3.49-.18.9-.05,1.8-.11,2.7-.18,1.11-.08,2.23-.15,3.34-.24.44-.04.89-.09,1.32-.19.9-.21,1.61-.76,2.28-1.37,1.24-1.13,1.81-2.62,2.08-4.21.18-1.04.23-2.11.24-3.16.04-3.96.05-7.91.06-11.87,0-.57-.04-1.15-.05-1.72-.02-1.6-.04-3.19-.06-4.79-.02-1.09-.03-2.18-.06-3.27-.02-.82-.07-1.63-.09-2.45,0-.06.13-.19.2-.19.34,0,.68.03,1.02.05.6.04,1.2.08,1.8.13.74.07,1.49.15,2.23.22.49.05.99.12,1.48.13.75.01,1.49.28,2.25.17.38.3.85.29,1.28.29.67,0,1.3-.28,1.85-.65.72-.48,1.05-1.22,1.15-2.07.11-.96-.17-1.83-.65-2.64ZM39.06,61.7c0,.24,0,.49,0,.73,0,.09,0,.18,0,.26,0,.56,0,1.11,0,1.67,0,.28,0,.57,0,.85,0,.05,0,.1,0,.15,0,.58-.01,1.16-.02,1.74-.02.11-.07.17-.14.2.07-.04.11-.1.14-.2,0-.58.01-1.16.02-1.74,0-.05,0-.1,0-.15,0-.28,0-.56,0-.85,0-.56,0-1.11,0-1.67,0-.09,0-.18,0-.26,0-.24,0-.49,0-.73h0ZM46.86,18.05c.26,0,.52.02.78.04-.26-.03-.52-.04-.78-.04Z"/>
      <path class="cls-5" d="M44.22,6.12c.37,0,.74.03,1.1.09.78.12,1.57.32,2.26.79.68.46,1.4.88,2.06,1.37.5.37.94.83,1.41,1.25.11.1.25.18.37.27,1.1.93,2.2,1.86,3.3,2.79.29.24.58.48.87.72.03.04.06.08.09.11,1.57,1.43,3.14,2.85,4.71,4.29,1.69,1.55,3.38,3.11,5.07,4.67.7.65,1.38,1.31,2.07,1.97.3.31.59.62.9.92.56.55,1.13,1.1,1.71,1.64.61.58,1.25,1.13,1.85,1.72,1.48,1.45,2.95,2.92,4.43,4.38,1.06,1.05,2.1,2.11,3.18,3.15,2.16,2.07,4.19,4.26,6.17,6.5,1.06,1.2,2.11,2.4,2.93,3.78.48.81.77,1.68.65,2.64-.1.85-.43,1.59-1.15,2.07-.54.36-1.17.65-1.83.65,0,0-.01,0-.02,0-.43,0-.9,0-1.28-.29-.13.02-.26.03-.38.03-.63,0-1.24-.18-1.87-.2-.49,0-.99-.08-1.48-.13-.74-.07-1.48-.16-2.23-.22-.6-.05-1.2-.09-1.8-.13-.33-.02-.66-.05-.99-.05,0,0-.02,0-.03,0-.07,0-.2.12-.2.19.02.82.07,1.63.09,2.45.03,1.09.05,2.18.06,3.27.02,1.6.04,3.19.06,4.79,0,.57.05,1.15.05,1.72-.01,3.96-.02,7.91-.06,11.87-.01,1.06-.06,2.12-.24,3.16-.28,1.59-.85,3.08-2.08,4.21-.66.61-1.38,1.16-2.28,1.37-.43.1-.88.15-1.32.19-1.11.09-2.23.17-3.34.24-.9.06-1.8.12-2.7.18-1.16.07-2.33.12-3.49.18-.94.04-1.88.08-2.83.11-1.57.06-3.15.12-4.72.18-.47.02-.93.04-1.4.05-1.68.04-3.37.08-5.05.12-1.04.02-2.08.04-3.13.06-.86.02-1.72.05-2.57.05-.05,0-.09,0-.14,0-1.96,0-3.92-.03-5.88-.06-.98-.01-1.97-.03-2.95-.06-1.07-.03-2.14-.07-3.21-.12-.9-.04-1.81-.07-2.71-.12-1.39-.07-2.77-.15-4.16-.24-1.02-.06-2.04-.13-3.05-.24-.61-.07-1.22-.23-1.82-.36-1.39-.29-2.4-1.12-3.23-2.23-.83-1.1-1.23-2.34-1.35-3.69-.07-.72-.11-1.43-.12-2.15-.03-3.17-.05-6.33-.05-9.5,0-1.63.03-3.25.06-4.88.03-1.7.08-3.41.11-5.11.03-1.34.03-2.69.06-4.03,0-.25-.07-.34-.33-.34-.93,0-1.87-.04-2.8-.05-.18,0-.35,0-.53,0-.62,0-1.24,0-1.86.01-.14.12-.27.25-.41.37-.13.11-.26.31-.4.32-.29.02-.58.05-.87.05-.45,0-.89-.08-1.3-.42-.32-.27-.71-.49-.84-.9-.15-.46-.29-.94-.34-1.43-.04-.39.02-.8.08-1.19.2-1.2.79-2.22,1.49-3.17.88-1.19,1.8-2.35,2.73-3.51.42-.52.91-.98,1.35-1.48.66-.75,1.29-1.53,1.96-2.27.84-.94,1.72-1.86,2.57-2.8.83-.91,1.65-1.84,2.49-2.75.75-.82,1.52-1.61,2.28-2.43,1.29-1.39,2.55-2.79,3.85-4.17,1.31-1.4,2.66-2.77,3.98-4.16,1.24-1.31,2.46-2.64,3.7-3.95.83-.87,1.7-1.72,2.54-2.59,1.08-1.12,2.14-2.26,3.23-3.38.72-.74,1.46-1.46,2.2-2.18.84-.83,1.69-1.66,2.55-2.47.31-.29.67-.53,1.09-.66.28-.09.52-.28.79-.39.76-.32,1.54-.46,2.34-.46M47.63,18.09c-.26-.03-.52-.04-.78-.04.26,0,.52.02.78.04M39.06,64.36c0,.28,0,.56,0,.85,0,.05,0,.1,0,.15,0,.57-.01,1.15-.02,1.72,0,0,0,0,0,.01-.02.11-.07.17-.14.2.07-.04.11-.1.14-.2,0,0,0,0,0-.01,0-.57.01-1.15.02-1.72,0-.05,0-.1,0-.15,0-.28,0-.56,0-.85,0-.56,0-1.11,0-1.67,0-.09,0-.18,0-.26,0-.24,0-.49,0-.73h0c0,.24,0,.49,0,.73,0,.09,0,.18,0,.26,0,.56,0,1.11,0,1.67M44.22,3.12c-1.22,0-2.4.23-3.49.69-.29.12-.52.25-.68.34h-.01c-.76.27-1.47.71-2.1,1.3-.76.72-1.51,1.46-2.26,2.19l-.32.32-.43.42c-.6.59-1.22,1.19-1.83,1.82-.6.61-1.18,1.23-1.77,1.85-.49.51-.97,1.02-1.46,1.53-.37.38-.74.75-1.11,1.13-.48.49-.97.97-1.44,1.47-.66.7-1.32,1.4-1.97,2.1-.57.62-1.15,1.23-1.73,1.85-.59.62-1.18,1.24-1.78,1.86-.74.77-1.48,1.54-2.21,2.32-.79.84-1.57,1.69-2.35,2.55-.5.55-1,1.09-1.51,1.64-.34.37-.69.74-1.04,1.1-.42.44-.84.88-1.25,1.33-.48.52-.95,1.05-1.43,1.57-.36.4-.71.79-1.07,1.19-.34.37-.67.73-1.01,1.1-.53.57-1.06,1.14-1.58,1.72-.39.43-.77.88-1.14,1.32-.28.33-.55.65-.84.97-.15.18-.32.34-.48.51-.3.31-.63.66-.95,1.07-.9,1.12-1.86,2.33-2.81,3.61-.72.98-1.72,2.51-2.04,4.47-.07.44-.19,1.19-.1,2,.07.63.22,1.29.48,2.05.4,1.2,1.25,1.85,1.66,2.17.04.03.08.06.12.09.89.74,1.97,1.11,3.21,1.11.34,0,.65-.03.9-.05l.19-.02c.79-.06,1.37-.39,1.76-.69.23,0,.46,0,.68,0h.49s.09,0,.13,0c0,.46-.01.91-.02,1.37-.02.78-.03,1.57-.05,2.35-.02.92-.04,1.84-.06,2.76v.16c-.03,1.56-.06,3.18-.06,4.78,0,2.87.02,5.98.05,9.52,0,.74.05,1.52.13,2.4.18,1.99.84,3.74,1.94,5.22,1.36,1.81,3.05,2.94,5.01,3.36.15.03.29.06.44.1.49.11,1.05.24,1.67.31,1.01.11,2.01.18,2.97.24h.22c1.4.1,2.8.18,4.2.25.85.04,1.7.08,2.55.11h.2s.3.02.3.02c.98.04,1.96.08,2.93.1,1,.03,2,.05,3,.06h.1c1.93.02,3.86.05,5.8.06h.16c.6,0,1.2-.01,1.81-.03l.82-.02.92-.02c.74-.01,1.48-.03,2.22-.04,1.69-.04,3.37-.08,5.06-.12.33,0,.66-.02.99-.04l.45-.02,1.64-.06,3.08-.12.52-.02c.78-.03,1.55-.06,2.33-.1,1.17-.05,2.35-.11,3.52-.18.88-.05,1.75-.11,2.62-.17h.12s.53-.04.53-.04c.95-.07,1.9-.13,2.86-.21.47-.04,1.09-.1,1.75-.26,1.59-.37,2.73-1.26,3.62-2.08,1.59-1.45,2.57-3.38,3.02-5.91.23-1.31.27-2.58.28-3.64.04-3.32.05-6.69.06-9.96v-1.94c0-.37,0-.74-.02-1.1,0-.22-.02-.45-.02-.67-.01-.81-.02-1.63-.03-2.44,0-.78-.02-1.57-.03-2.35-.01-.89-.03-1.78-.05-2.66.32.03.63.06.94.1.3.03.6.06.91.09l.35.04c.4.04.86.09,1.36.1.1,0,.31.03.5.06.32.05.71.11,1.16.13.76.27,1.45.27,1.85.27h.05c1.21,0,2.39-.39,3.53-1.15.97-.65,2.19-1.91,2.46-4.22.18-1.52-.18-3.04-1.05-4.52-.92-1.56-2.03-2.85-3.27-4.25-2.39-2.69-4.4-4.81-6.34-6.67-.71-.68-1.41-1.38-2.1-2.08-.35-.35-.69-.69-1.04-1.04l-1.15-1.14c-1.09-1.09-2.19-2.17-3.29-3.25-.39-.38-.79-.74-1.19-1.11-.24-.22-.47-.43-.71-.65-.56-.53-1.12-1.06-1.67-1.6-.19-.18-.37-.38-.56-.57l-.29-.3-.04-.04-.04-.04-.64-.61c-.49-.47-.97-.93-1.46-1.39-1.69-1.56-3.38-3.12-5.08-4.68-1.03-.94-2.06-1.88-3.09-2.82l-1.49-1.35-.13-.16-.2-.17-.28-.23c-.19-.16-.38-.32-.57-.48l-1.42-1.2-1.88-1.59c-.12-.1-.26-.2-.39-.29-.11-.1-.22-.21-.33-.31-.34-.32-.73-.68-1.2-1.03-.49-.37-.98-.68-1.45-.98-.24-.15-.48-.31-.71-.47-1.25-.85-2.58-1.13-3.48-1.27-.52-.08-1.05-.12-1.56-.12h0Z"/>
    </g>
    <g>
      <path class="cls-4" d="M85.08,51.59c-.76.11-1.5-.16-2.25-.17-.49,0-.99-.08-1.48-.13-.74-.07-1.48-.16-2.23-.22-.6-.05-1.2-.09-1.8-.13-.34-.02-.68-.05-1.02-.05-.07,0-.2.12-.2.19.02.82.07,1.63.09,2.45.03,1.09.05,2.18.06,3.27.02,1.6.04,3.19.06,4.79,0,.57.05,1.15.05,1.72-.01,3.96-.02,7.91-.06,11.87-.01,1.06-.06,2.12-.24,3.16-.28,1.59-.85,3.08-2.08,4.21-.66.61-1.38,1.16-2.28,1.37-.43.1-.88.15-1.32.19-1.11.09-2.23.17-3.34.24-.9.06-1.8.12-2.7.18-1.16.07-2.33.12-3.49.18-.94.04-1.88.08-2.83.11-1.57.06-3.15.12-4.72.18-.47.02-.93.04-1.4.05-1.68.04-3.37.08-5.05.12-1.04.02-2.08.04-3.13.06-.91.02-1.81.05-2.72.05-1.96,0-3.92-.03-5.88-.06-.98-.01-1.97-.03-2.95-.06-1.07-.03-2.14-.07-3.21-.12-.9-.04-1.81-.07-2.71-.12-1.39-.07-2.77-.15-4.16-.24-1.02-.06-2.04-.13-3.05-.24-.61-.07-1.22-.23-1.82-.36-1.39-.29-2.4-1.12-3.23-2.23-.83-1.1-1.23-2.34-1.35-3.69-.07-.72-.11-1.43-.12-2.15-.03-3.17-.05-6.33-.05-9.5,0-1.63.03-3.25.06-4.88.03-1.7.08-3.41.11-5.11.03-1.34.03-2.69.06-4.03,0-.25-.07-.34-.33-.34-.93,0-1.87-.04-2.8-.05-.8,0-1.59,0-2.39,0,.14-.44.24-.9.44-1.31.55-1.08,1.09-2.18,1.73-3.21,1.19-1.91,2.51-3.72,3.99-5.42,1.76-2.02,3.54-4.02,5.33-6.01,1.02-1.13,2.07-2.23,3.11-3.33,1-1.05,2.01-2.09,3.01-3.15.93-.99,1.84-2.01,2.77-3,1.07-1.14,2.17-2.25,3.25-3.39.95-1,1.87-2.03,2.82-3.03,1.15-1.22,2.31-2.42,3.47-3.63.58-.61,1.15-1.22,1.72-1.83.66-.7,1.32-1.4,1.98-2.11.53-.57,1.05-1.15,1.59-1.71.18-.18.41-.33.65-.42.14-.05.38-.01.5.08.58.48,1.15.97,1.71,1.48.94.87,1.87,1.75,2.81,2.62,2.78,2.59,5.57,5.17,8.34,7.77,2.43,2.28,4.84,4.59,7.26,6.9,1.97,1.88,3.97,3.74,5.9,5.67,2.98,2.98,5.92,5.99,8.85,9.02,1.52,1.58,2.96,3.24,4.42,4.87.77.85,1.5,1.73,2.25,2.6ZM65.42,39.42h0c0-.1.02-.22,0-.32-.29-1.01-.54-2.02-.88-3.01-.34-.97-.75-1.91-1.15-2.85-.4-.93-.78-1.87-1.24-2.76-.61-1.17-1.29-2.3-2.17-3.29-.75-.84-1.43-1.75-2.23-2.54-1.44-1.42-2.95-2.77-4.42-4.16-.85-.8-1.85-1.36-2.92-1.78-.63-.25-1.33-.32-2-.48-1.03-.24-2.07-.16-3.11-.15-.35.07-.71.11-1.05.22-.66.21-1.35.39-1.96.71-.74.39-1.45.87-2.1,1.41-.82.68-1.63,1.4-2.33,2.2-.86.98-1.65,2.03-2.41,3.09-.58.8-1.12,1.64-1.6,2.5-.69,1.26-1.36,2.54-1.95,3.84-.48,1.05-.85,2.15-1.24,3.23-.22.6-.39,1.22-.55,1.84-.17.66-.3,1.34-.45,2.01-.89.01-1.77.02-2.66.03-.71.01-1.42.04-2.13.04-.51,0-.8.45-.85.82-.04.32,0,.66.09.97.08.3.31.48.66.47.37,0,.74.02,1.11.03,1.13.01,2.26.02,3.39.02-.01.23,0,.47-.03.7-.1.73-.27,1.45-.32,2.18-.09,1.28-.27,2.56-.13,3.85l-.76.05c-.1-.02-.21-.05-.31-.05-.54,0-1.07,0-1.61,0q-.45,0-.58.43c-.02.06-.04.11-.05.17-.18.63-.41,1.26-.54,1.9-.29,1.37-.55,2.75-.78,4.14-.23,1.39-.46,2.79-.62,4.19-.15,1.3-.26,2.61-.29,3.92-.04,1.49.02,2.98.05,4.47,0,.42.07.85.15,1.27.08.49.18.97.32,1.45.19.69.35,1.4.66,2.04.51,1.05,1.17,2,2.13,2.73,1,.77,2.13,1.24,3.33,1.47.88.17,1.81.1,2.72.13,2.35.05,4.69.17,7.03-.12,1.36.02,2.73.05,4.09.06,1.04,0,2.09-.03,3.13-.05,1.41-.02,2.82-.04,4.24-.06,1.3-.02,2.59-.04,3.89-.06.06,0,.12,0,.18,0,1.19-.04,2.37-.07,3.56-.11.65-.02,1.3.01,1.94-.07,1.54-.2,2.98-.69,4.26-1.62.99-.73,1.74-1.64,2.27-2.73.63-1.28.92-2.66,1.08-4.08.19-1.64.26-3.28.26-4.92,0-1.67-.09-3.34-.16-5.02-.04-.89-.1-1.78-.18-2.67-.1-1.17-.2-2.34-.36-3.5-.15-1.09-.38-2.18-.57-3.26-.04-.22-.13-.31-.35-.28-.2.02-.3-.04-.31-.27-.02-.5-.06-1.01-.12-1.51-.11-.98-.19-1.97-.35-2.95-.11-.68-.13-1.4-.48-2.02.4-.5.34-1.25-.15-1.83-.02-.03-.04-.06-.06-.08Z"/>
      <path class="cls-6" d="M85.08,51.59c-.75-.87-1.49-1.75-2.25-2.6-1.46-1.63-2.9-3.29-4.42-4.87-2.92-3.03-5.87-6.04-8.85-9.02-1.93-1.93-3.93-3.79-5.9-5.67-2.41-2.3-4.83-4.61-7.26-6.9-2.77-2.6-5.56-5.18-8.34-7.77-.94-.87-1.86-1.76-2.81-2.62-.56-.51-1.12-1.01-1.71-1.48-.12-.1-.36-.13-.5-.08-.24.09-.47.24-.65.42-.55.55-1.06,1.14-1.59,1.71-.66.7-1.32,1.41-1.98,2.11-.57.61-1.14,1.22-1.72,1.83-1.15,1.21-2.32,2.42-3.47,3.63-.95,1-1.87,2.03-2.82,3.03-1.08,1.14-2.18,2.25-3.25,3.39-.93.99-1.84,2.01-2.77,3-.99,1.06-2.01,2.09-3.01,3.15-1.04,1.1-2.1,2.2-3.11,3.33-1.79,1.99-3.57,4-5.33,6.01-1.48,1.69-2.8,3.51-3.99,5.42-.64,1.03-1.18,2.12-1.73,3.21-.21.41-.3.87-.44,1.31-.14.12-.27.25-.41.37-.13.11-.26.31-.4.32-.75.06-1.5.19-2.17-.36-.32-.27-.71-.49-.84-.9-.15-.46-.29-.94-.34-1.43-.04-.39.02-.8.08-1.19.2-1.2.79-2.22,1.49-3.17.88-1.19,1.8-2.35,2.73-3.51.42-.52.91-.98,1.35-1.48.66-.75,1.29-1.53,1.96-2.27.84-.94,1.72-1.86,2.57-2.8.83-.91,1.65-1.84,2.49-2.75.75-.82,1.52-1.61,2.28-2.43,1.29-1.39,2.55-2.79,3.85-4.17,1.31-1.4,2.66-2.77,3.98-4.16,1.24-1.31,2.46-2.64,3.7-3.95.83-.87,1.7-1.72,2.54-2.59,1.08-1.12,2.14-2.26,3.23-3.38.72-.74,1.46-1.46,2.2-2.18.84-.83,1.69-1.66,2.55-2.47.31-.29.67-.53,1.09-.66.28-.09.52-.28.79-.39,1.11-.46,2.28-.55,3.44-.37.78.12,1.57.32,2.26.79.68.46,1.4.88,2.06,1.37.5.37.94.83,1.41,1.25.11.1.25.18.37.27,1.1.93,2.2,1.86,3.3,2.79.29.24.58.48.87.72.03.04.06.08.09.11,1.57,1.43,3.14,2.85,4.71,4.29,1.69,1.55,3.38,3.11,5.07,4.67.7.65,1.38,1.31,2.07,1.97.3.31.59.62.9.92.56.55,1.13,1.1,1.71,1.64.61.58,1.25,1.13,1.85,1.72,1.48,1.45,2.95,2.92,4.43,4.38,1.06,1.05,2.1,2.11,3.18,3.15,2.16,2.07,4.19,4.26,6.17,6.5,1.06,1.2,2.11,2.4,2.93,3.78.48.81.77,1.68.65,2.64-.1.85-.43,1.59-1.15,2.07-.55.37-1.18.65-1.85.65-.43,0-.9,0-1.28-.29Z"/>
      <path class="cls-3" d="M35.34,83.89s-.04.03-.06.04c0,0-.01-.01-.02-.02.03,0,.05-.02.08-.02,0,0,0,0,0,0Z"/>
      <path class="cls-2" d="M28.79,48.25c-.14-1.29.04-2.57.13-3.85.05-.73.22-1.45.32-2.18.03-.23.02-.46.03-.7.22,0,.45-.02.67-.03,3.78,0,7.57,0,11.35,0,3.26,0,6.51.01,9.77,0,4.02-.01,8.04-.04,12.05-.06.33,0,.65.03.98,0,.51-.03,1.02-.08,1.53-.12.35.63.38,1.34.48,2.02.16.98.24,1.96.35,2.95.05.5.1,1.01.12,1.51.01.23.12.29.31.27.22-.03.31.06.35.28.19,1.09.42,2.17.57,3.26.16,1.16.25,2.33.36,3.5.08.89.14,1.78.18,2.67.07,1.67.15,3.34.16,5.02,0,1.64-.07,3.28-.26,4.92-.16,1.42-.46,2.79-1.08,4.08-.53,1.09-1.28,2-2.27,2.73-1.28.94-2.71,1.43-4.26,1.62-.64.08-1.29.05-1.94.07-1.19.04-2.37.07-3.56.11-.06,0-.12,0-.18,0-1.3.02-2.59.05-3.89.06-1.41.02-2.82.04-4.24.06-1.04.02-2.09.05-3.13.05-1.36,0-2.73-.04-4.09-.06-.08-.08-.15-.17-.24-.22-.4-.2-.82-.36-1.2-.59-.64-.38-1.28-.75-1.76-1.35-.93-1.16-1.67-2.41-2.03-3.86-.1-.42-.22-.85.14-1.23.26.37.56.58,1.06.56.92-.05,1.85-.02,2.77-.02,6.59,0,13.19,0,19.78,0,.85,0,1.7,0,2.55,0,.15,0,.38-.05.42-.15.23-.49.3-1.02.03-1.52-.26-.48-.7-.65-1.22-.66-.17,0-.34,0-.53,0,0-.11,0-.17.01-.24.05-.45.15-.91.16-1.36.01-1.61-.01-3.22,0-4.83.02-3.45.05-6.9.08-10.36,0-.71-.42-1.18-1.12-1.25-.17-.02-.35,0-.53,0,.11-.06.21-.11.32-.17-.08-.22-.14-.47-.25-.7-.04-.09-.2-.17-.31-.17-.61-.03-1.22-.06-1.82-.06-6.38,0-12.76,0-19.15,0-2.52,0-5.05.04-7.57.05-.14,0-.29-.04-.43-.05Z"/>
      <path class="cls-3" d="M28.79,48.25c.14.02.29.06.43.05,2.52-.02,5.05-.05,7.57-.05,6.38,0,12.76,0,19.15,0,.61,0,1.22.03,1.82.06.11,0,.26.08.31.17.11.23.17.47.25.7-.11.06-.22.11-.32.17-.57.22-.79.67-.8,1.24,0,3.63,0,7.25-.01,10.88,0,1.79,0,3.59,0,5.38,0,.15,0,.3,0,.47h-15.68v-7.53c.3-.02.57-.05.84-.04,3.14,0,6.28,0,9.42.05.84.02,1.19-.26,1.09-1.06,0-.04,0-.08,0-.12-.02-.55-.44-.97-.99-1-.28-.01-.56-.02-.84-.03-1.44-.01-2.89-.03-4.33-.04-1.62,0-3.24,0-4.86,0-.26,0-.38-.08-.35-.35.01-.1,0-.19,0-.29-.02-2.17-.03-4.35-.05-6.52,0-.6-.28-.94-.84-1.02-.66-.11-1.33.04-1.51.99-.06.33,0,.69,0,1.03,0,1.62-.01,3.24-.02,4.86,0,1.3,0,2.59-.01,3.89,0,.52,0,1.03,0,1.55,0,.24,0,.49,0,.73,0,.09,0,.18,0,.26,0,.56,0,1.11,0,1.67,0,.28,0,.56,0,.85,0,.05,0,.1,0,.15,0,.58-.01,1.16-.02,1.74-.05.21-.19.25-.39.25-1.09-.01-2.18-.02-3.28-.02-.64,0-1.16.62-1.04,1.24.04.22.13.43.19.64-.36.37-.24.81-.14,1.23.36,1.45,1.11,2.7,2.03,3.86.48.6,1.12.97,1.76,1.35.38.23.8.38,1.2.59.09.05.16.15.24.22-2.34.29-4.69.17-7.03.12-.03-.04-.06-.11-.1-.12-.32-.1-.65-.17-.97-.28-.53-.18-1.11-.3-1.57-.6-.57-.37-1.05-.89-1.53-1.38-1.05-1.05-1.77-2.29-2.13-3.75-.33-1.33-.52-2.68-.54-4.05-.02-1.26.02-2.53.05-3.79.02-.79.05-1.57.12-2.36.1-1.13.21-2.26.35-3.38.16-1.26.32-2.52.54-3.76.16-.89.4-1.77.62-2.66.18-.71.4-1.42.6-2.12l.76-.05Z"/>
      <path class="cls-6" d="M65.63,41.33c-.51.04-1.02.1-1.53.12-.33.02-.65-.01-.98,0-4.02.02-8.04.05-12.05.06-3.26,0-6.51,0-9.77,0-3.78,0-7.57,0-11.35,0-.22,0-.45.02-.67.03-1.13,0-2.26-.01-3.39-.02-.37,0-.74-.03-1.11-.03-.35,0-.58-.18-.66-.47-.08-.31-.13-.66-.09-.97.04-.37.34-.82.85-.82.71,0,1.42-.03,2.13-.04.89-.01,1.77-.02,2.66-.03.17.03.34.08.51.09.38,0,.76-.03,1.14-.03,1.37,0,2.75.01,4.12.01,2.51,0,5.03.01,7.54.03.19,0,.24-.07.23-.24-.01-.2-.03-.41-.03-.61,0-2.88-.03-5.77-.02-8.65,0-1.56.79-2.72,2.02-3.61.02-.01.04-.03.06-.04h0s.04,0,.06-.01c1.03-.61,2.15-.83,3.31-.66.9.13,1.8.34,2.66.63.81.27,1.63.58,2.34,1.09.25.18.49.38.75.54.84.54,1.56,1.22,2.18,2,1.07,1.36,1.85,2.84,2.2,4.56.2.98.17,1.97.29,2.95.07.56.03,1.13.02,1.69,0,.25.05.34.32.33,1.53-.02,3.06-.03,4.59,0,.49,0,1.02-.05,1.48.22,0,0,0,0,0,0,.02.03.04.06.06.08.49.58.55,1.33.15,1.83ZM56.46,39.13c-.03-1.14-.07-2.29-.1-3.44-.02-.86-.21-1.68-.54-2.46-.13-.3-.28-.6-.44-.88-.23-.41-.47-.81-.73-1.2-.6-.88-1.46-1.47-2.29-2.09-.28-.2-.59-.36-.93-.55,0,.43,0,.8,0,1.17,0,3.04.02,6.08.02,9.12,0,.26.07.35.35.35,1.54-.01,3.08,0,4.66,0ZM49.17,33.55h0c0-.42,0-.84,0-1.26,0-1.33.02-2.67.03-4,0-.33-.08-.42-.42-.45-.15-.01-.31-.03-.46-.04-.57-.04-1.12,0-1.59.36-.25.19-.49.41-.68.66-.31.43-.41.94-.41,1.46,0,2.87,0,5.75,0,8.62,0,.19.05.25.25.25,1-.01,2.01-.02,3.01-.02.23,0,.27-.08.27-.29,0-1.76,0-3.53,0-5.29Z"/>
      <path class="cls-3" d="M45.17,26.12c-1.22.9-2.01,2.05-2.02,3.61-.01,2.88,0,5.77.02,8.65,0,.2.02.41.03.61.01.17-.04.24-.23.24-2.51-.01-5.03-.02-7.54-.03-1.37,0-2.75-.01-4.12-.01-.38,0-.76.03-1.14.03-.17,0-.34-.06-.51-.09.15-.67.28-1.35.45-2.01.16-.62.34-1.24.55-1.84.39-1.09.76-2.18,1.24-3.23.6-1.31,1.26-2.59,1.95-3.84.48-.87,1.02-1.7,1.6-2.5.77-1.06,1.55-2.12,2.41-3.09.7-.8,1.51-1.52,2.33-2.2.65-.54,1.36-1.01,2.1-1.41.61-.32,1.29-.5,1.96-.71.34-.11.7-.15,1.05-.22-.04.65-.1,1.29-.12,1.94-.02.96,0,1.92,0,2.88,0,.1.02.19.02.29,0,.42,0,.84,0,1.27,0,.54.02,1.08.04,1.63,0,0,0,0,0,0-.02.01-.04.03-.06.04Z"/>
      <path class="cls-2" d="M45.23,26.08c-.01-.54-.03-1.08-.04-1.63,0-.42,0-.84,0-1.27,0-.1-.02-.19-.02-.29,0-.96-.02-1.92,0-2.88.01-.65.08-1.3.12-1.94,1.04-.02,2.08-.1,3.11.15.67.16,1.37.23,2,.48,1.06.43,2.07.98,2.92,1.78,1.47,1.39,2.98,2.74,4.42,4.16.8.79,1.48,1.7,2.23,2.54.88,1,1.56,2.12,2.17,3.29.47.89.85,1.83,1.24,2.76.4.94.82,1.88,1.15,2.85.34.99.6,2,.88,3.01.03.1,0,.21,0,.32-.46-.28-.99-.21-1.48-.22-1.53-.03-3.06-.02-4.59,0-.27,0-.33-.09-.32-.33.01-.56.05-1.14-.02-1.69-.12-.98-.09-1.97-.29-2.95-.35-1.72-1.13-3.21-2.2-4.56-.62-.78-1.33-1.46-2.18-2-.26-.17-.5-.36-.75-.54-.71-.51-1.53-.82-2.34-1.09-.86-.28-1.76-.5-2.66-.63-1.16-.17-2.28.06-3.31.66-.02,0-.04,0-.06.01Z"/>
      <path class="cls-1" d="M28.03,48.31c-.2.71-.42,1.41-.6,2.12-.23.88-.47,1.76-.62,2.66-.22,1.25-.38,2.51-.54,3.76-.14,1.12-.25,2.25-.35,3.38-.07.78-.1,1.57-.12,2.36-.03,1.26-.07,2.53-.05,3.79.02,1.37.21,2.72.54,4.05.36,1.46,1.08,2.69,2.13,3.75.48.49.96,1,1.53,1.38.46.3,1.04.42,1.57.6.32.11.65.18.97.28.04.01.07.08.1.12-.91-.04-1.84.03-2.72-.13-1.2-.23-2.33-.71-3.33-1.47-.95-.73-1.62-1.68-2.13-2.73-.31-.64-.46-1.35-.66-2.04-.13-.47-.23-.96-.32-1.45-.07-.42-.14-.84-.15-1.27-.03-1.49-.09-2.98-.05-4.47.03-1.31.14-2.62.29-3.92.16-1.4.38-2.8.62-4.19.23-1.38.5-2.76.78-4.14.13-.64.36-1.27.54-1.9.02-.06.04-.11.05-.17q.13-.43.58-.43c.54,0,1.07,0,1.61,0,.1,0,.21.03.31.05Z"/>
      <path class="cls-2" d="M65.48,39.5s-.04-.06-.06-.08c.02.03.04.06.06.08Z"/>
      <path class="cls-6" d="M39.06,60.15c0-1.3,0-2.59.01-3.89,0-1.62.01-3.24.02-4.86,0-.34-.06-.7,0-1.03.18-.96.85-1.1,1.51-.99.56.09.83.43.84,1.02.02,2.17.03,4.35.05,6.52,0,.1.01.2,0,.29-.04.27.08.35.35.35,1.62,0,3.24,0,4.86,0,1.44,0,2.89.02,4.33.04.28,0,.56.01.84.03.55.02.97.45.99,1,0,.04,0,.08,0,.12.1.8-.25,1.08-1.09,1.06-3.14-.06-6.28-.04-9.42-.05-.27,0-.54.03-.84.04v7.53h15.68c0-.17,0-.32,0-.47,0-1.79,0-3.59,0-5.38,0-3.63,0-7.25.01-10.88,0-.57.23-1.02.8-1.24.18,0,.35-.02.53,0,.7.08,1.13.55,1.12,1.25-.02,3.45-.06,6.9-.08,10.36,0,1.61.02,3.22,0,4.83,0,.45-.1.91-.16,1.36,0,.07,0,.13-.01.24.19,0,.36,0,.53,0,.52,0,.97.18,1.22.66.27.5.2,1.03-.03,1.52-.05.1-.28.15-.42.15-.85.01-1.7,0-2.55,0-6.59,0-13.19,0-19.78,0-.93,0-1.85-.03-2.77.02-.5.03-.8-.19-1.06-.56-.07-.21-.15-.42-.19-.64-.12-.62.4-1.24,1.04-1.24,1.09,0,2.18,0,3.28.02.2,0,.34-.03.39-.25,0-.58.01-1.16.02-1.74,0-.05,0-.1,0-.15,0-.28,0-.56,0-.85,0-.56,0-1.11,0-1.67,0-.09,0-.18,0-.26,0-.24,0-.49,0-.73,0-.52,0-1.03,0-1.55Z"/>
      <path class="cls-4" d="M39.06,65.35c0,.58-.01,1.16-.02,1.74,0-.58.01-1.16.02-1.74Z"/>
      <path class="cls-4" d="M39.06,60.15c0,.52,0,1.03,0,1.55,0-.52,0-1.03,0-1.55Z"/>
      <path class="cls-4" d="M39.06,64.36c0,.28,0,.57,0,.85,0-.28,0-.57,0-.85Z"/>
      <path class="cls-4" d="M39.06,62.43c0,.09,0,.18,0,.26,0-.09,0-.18,0-.26Z"/>
      <path class="cls-3" d="M56.46,39.13c-1.58,0-3.12,0-4.66,0-.28,0-.35-.1-.35-.35,0-3.04-.02-6.08-.02-9.12,0-.37,0-.74,0-1.17.33.2.65.35.93.55.84.62,1.7,1.22,2.29,2.09.26.39.5.79.73,1.2.16.29.31.58.44.88.33.79.52,1.61.54,2.46.03,1.15.07,2.31.1,3.44Z"/>
      <path class="cls-3" d="M49.17,33.55c0,1.76,0,3.53,0,5.29,0,.21-.04.29-.27.29-1,0-2.01,0-3.01.02-.2,0-.25-.06-.25-.25,0-2.87,0-5.75,0-8.62,0-.52.1-1.03.41-1.46.18-.25.43-.47.68-.66.47-.36,1.02-.4,1.59-.36.15.01.31.03.46.04.34.03.42.12.42.45,0,1.33-.02,2.67-.03,4,0,.42,0,.84,0,1.26h0Z"/>
      <path class="cls-2" d="M45.17,26.12s.04-.03.06-.04c-.02.01-.04.03-.06.04Z"/>
    </g>
    <text class="cls-14" transform="translate(91.96 35.75)"><tspan x="0" y="0">CLASS</tspan><tspan x="6.73" y="45.4">FLOW</tspan></text>
    <text class="cls-16" transform="translate(91.96 35.75)"><tspan class="cls-15" x="0" y="0">C</tspan><tspan class="cls-12" x="30.65" y="0">L</tspan><tspan class="cls-7" x="56.83" y="0">A</tspan><tspan class="cls-9" x="89.89" y="0">S</tspan><tspan class="cls-10" x="118.68" y="0">S</tspan><tspan class="cls-13" x="6.73" y="45.4">F</tspan><tspan class="cls-17" x="32.92" y="45.4">L</tspan><tspan class="cls-8" x="59.1" y="45.4">O</tspan><tspan class="cls-11" x="93.71" y="45.4">W</tspan></text>
  </g>
</svg>